Coordinates
version=1
nRows=4
nColumns=124
inDegrees=yes

Units are S.I. units (second, meters, Newtons, ...)
If the header above contains a line with 'inDegrees', this indicates whether rotational values are in degrees (yes) or radians (no).

endheader 
time	pelvis_tilt	pelvis_list	pelvis_rotation	pelvis_tx	pelvis_ty	pelvis_tz	hip_flexion_l	hip_adduction_l	hip_rotation_l	hip_flexion_r	hip_adduction_r	hip_rotation_r	knee_angle_l	knee_angle_r	ankle_angle_l	ankle_angle_r	subtalar_angle_l	subtalar_angle_r	mtp_angle_l	mtp_angle_r	lumbar_extension	lumbar_bending	lumbar_rotation	arm_flex_l	arm_add_l	arm_rot_l	arm_flex_r	arm_add_r	arm_rot_r	elbow_flex_l	elbow_flex_r	glut_med1_l/activation	glut_med2_l/activation	glut_med3_l/activation	glut_min1_l/activation	glut_min2_l/activation	glut_min3_l/activation	semimem_l/activation	semiten_l/activation	bifemlh_l/activation	bifemsh_l/activation	sar_l/activation	add_long_l/activation	add_brev_l/activation	add_mag1_l/activation	add_mag2_l/activation	add_mag3_l/activation	tfl_l/activation	pect_l/activation	grac_l/activation	glut_max1_l/activation	glut_max2_l/activation	glut_max3_l/activation	iliacus_l/activation	psoas_l/activation	quad_fem_l/activation	gem_l/activation	peri_l/activation	rect_fem_l/activation	vas_med_l/activation	vas_int_l/activation	vas_lat_l/activation	med_gas_l/activation	lat_gas_l/activation	soleus_l/activation	tib_post_l/activation	flex_dig_l/activation	flex_hal_l/activation	tib_ant_l/activation	per_brev_l/activation	per_long_l/activation	per_tert_l/activation	ext_dig_l/activation	ext_hal_l/activation	ercspn_l/activation	intobl_l/activation	extobl_l/activation	glut_med1_r/activation	glut_med2_r/activation	glut_med3_r/activation	glut_min1_r/activation	glut_min2_r/activation	glut_min3_r/activation	semimem_r/activation	semiten_r/activation	bifemlh_r/activation	bifemsh_r/activation	sar_r/activation	add_long_r/activation	add_brev_r/activation	add_mag1_r/activation	add_mag2_r/activation	add_mag3_r/activation	tfl_r/activation	pect_r/activation	grac_r/activation	glut_max1_r/activation	glut_max2_r/activation	glut_max3_r/activation	iliacus_r/activation	psoas_r/activation	quad_fem_r/activation	gem_r/activation	peri_r/activation	rect_fem_r/activation	vas_med_r/activation	vas_int_r/activation	vas_lat_r/activation	med_gas_r/activation	lat_gas_r/activation	soleus_r/activation	tib_post_r/activation	flex_dig_r/activation	flex_hal_r/activation	tib_ant_r/activation	per_brev_r/activation	per_long_r/activation	per_tert_r/activation	ext_dig_r/activation	ext_hal_r/activation	ercspn_r/activation	intobl_r/activation	extobl_r/activation	
          0.84511564	         -6.46457699	         -4.38994619	          7.11171586	          0.51712434	          1.00315733	         -0.01255793	         -4.57081469	         -0.00237393	         12.85017032	         31.66090817	          4.88316069	          4.01078761	         -3.58337009	        -14.63097085	          9.86208170	          6.94672734	         -8.20161553	         -4.37853584	         17.64347139	          0.16100879	          0.81070169	          1.27080415	         -0.54190427	         -3.25916452	        -13.46652583	         19.34542705	          3.74407659	        -13.46343496	         19.34842064	         28.52721342	         33.45726692	          0.53276507	          0.39176151	          0.29128759	          0.38441911	          0.40383182	          0.37528574	          0.05000096	          0.05000081	          0.05000045	          0.12519984	          0.13378615	          0.05000027	          0.05000037	          0.05000066	          0.05000140	          0.05000076	          0.42895131	          0.05000138	          0.05000108	          0.05200088	          0.05000361	          0.05000057	          0.22836222	          0.30772417	          0.05000079	          0.05000578	          0.28789827	          0.05000408	          0.05000137	          0.05000127	          0.05000117	          0.44213538	          0.48554875	          0.27630537	          0.39680847	          0.18869591	          0.17250354	          0.09948040	          0.05000073	          0.05000032	          0.05000547	          0.06396791	          0.06972505	          0.05000006	          0.05000006	          0.05000013	          0.05000037	          0.05000045	          0.05000049	          0.05000141	          0.05000116	          0.05000103	          0.05000019	          0.05000067	          0.05000031	          0.05000150	          0.07555188	          0.16223642	          0.27251977	          0.16822238	          0.05917648	          0.05000109	          0.05338759	          0.05004259	          0.05003223	          0.05000052	          0.05000038	          0.05000114	          0.26538416	          0.26574090	          0.17021427	          0.05000670	          0.05000116	          0.07288305	          0.05000221	          0.05000214	          0.05000121	          0.05000015	          0.05000028	          0.05000005	          0.05000050	          0.05000299	          0.05000241	          0.36565914	          0.16619518	          0.17732615	          0.07820612	          0.39941140	          0.07817620	          0.06792259	          0.17953243	          0.10500574	
          0.87892027	         -6.49636849	         -4.30010864	          7.19514600	          0.54359376	          0.99871416	         -0.01084614	         -5.76137786	         -0.16993632	         11.86203615	         31.45496792	          5.33869608	          4.94300077	         -4.36266495	        -13.40298178	         10.44834642	          6.53702881	         -7.20866191	         -5.26874626	         19.94099291	          0.18286248	          1.02795894	          1.52497402	         -1.75082408	         -2.77931018	        -13.46514035	         19.34846335	          1.95210646	        -13.46349482	         19.34736912	         30.13284963	         29.61946918	          0.49836613	          0.37262480	          0.28446370	          0.35036641	          0.38510710	          0.37655972	          0.05000067	          0.05000062	          0.05000038	          0.11286261	          0.16014320	          0.05000035	          0.05000041	          0.05000070	          0.05000145	          0.05000070	          0.40540788	          0.05000171	          0.05000131	          0.05000985	          0.05000244	          0.05000059	          0.29277026	          0.34213593	          0.05000120	          0.05000619	          0.29045814	          0.08355155	          0.05000129	          0.05000120	          0.05000113	          0.44944676	          0.51183501	          0.32636421	          0.40720220	          0.22821150	          0.22678881	          0.06363060	          0.05000072	          0.05000049	          0.05000158	          0.05000054	          0.05000204	          0.05000007	          0.05000005	          0.05000011	          0.05000052	          0.05000054	          0.05000057	          0.05000162	          0.05000133	          0.05000114	          0.05000170	          0.05000216	          0.05000123	          0.05000846	          0.05000750	          0.15764712	          0.26943283	          0.15685710	          0.14144242	          0.05000405	          0.05000128	          0.05001282	          0.11785572	          0.05000063	          0.05000049	          0.05000164	          0.19106759	          0.18305186	          0.13878570	          0.05000506	          0.05000093	          0.05417004	          0.05000096	          0.05000093	          0.05000065	          0.05058305	          0.05004556	          0.05715842	          0.05000093	          0.05000104	          0.05000143	          0.41880051	          0.20740908	          0.19102512	          0.05002310	          0.45739682	          0.05000404	          0.07196137	          0.17297426	          0.09837637	
          0.91272489	         -6.50752534	         -4.19682762	          7.22176843	          0.57243111	          0.99408325	         -0.00889570	         -6.70927703	         -0.27966111	         10.60387472	         30.65210003	          5.94530016	          5.90756272	         -5.88702096	        -13.24153011	         10.91776816	          5.45460684	         -6.12654956	         -6.31840572	         22.69724955	          0.21806117	          1.36151534	          1.83970197	         -2.97122635	         -2.66456644	        -13.46616544	         19.34867097	         -0.31909522	        -13.46353026	         19.34156214	         31.77756455	         26.09605186	          0.42047581	          0.30635823	          0.21666000	          0.26802132	          0.32024157	          0.29476330	          0.05000082	          0.05000068	          0.05000045	          0.07817187	          0.14807610	          0.05000032	          0.05000039	          0.05000071	          0.05000150	          0.05000078	          0.31538880	          0.05000146	          0.05000139	          0.06177320	          0.05002331	          0.05000097	          0.23757966	          0.30552703	          0.05000915	          0.05618580	          0.19107676	          0.11662199	          0.05000107	          0.05000099	          0.05000094	          0.42644614	          0.50364500	          0.36075250	          0.41924502	          0.27995243	          0.28191298	          0.05000026	          0.05000044	          0.05000022	          0.05000093	          0.05000029	          0.05000118	          0.05000004	          0.05000006	          0.05000010	          0.05000018	          0.05000019	          0.05000022	          0.05000057	          0.05000046	          0.05000041	          0.05000021	          0.05000075	          0.05000030	          0.05000077	          0.05000210	          0.12222051	          0.20372139	          0.17277154	          0.14731298	          0.05000606	          0.05000131	          0.05671044	          0.11172558	          0.05000027	          0.05000024	          0.06697110	          0.12221246	          0.11708561	          0.14681767	          0.05000466	          0.05000049	          0.07817107	          0.11550085	          0.12256660	          0.11151831	          0.05000021	          0.05000040	          0.05000007	          0.05000028	          0.05000184	          0.05000166	          0.50617122	          0.26740810	          0.18551310	          0.29622424	          0.48545667	          0.15245168	          0.07304010	          0.13946060	          0.06293021	
          0.94652952	         -6.49114634	         -4.02868851	          7.17420254	          0.60343593	          0.98992097	         -0.00676766	         -7.43399023	         -0.30773121	          9.18248026	         29.09701053	          6.47309358	          6.97864229	         -8.08636884	        -13.69447755	         10.93715327	          4.95508077	         -5.02701103	         -7.65876236	         25.70956466	          0.17902435	          1.81547775	          2.13660176	         -4.16683001	         -2.94638978	        -13.47239960	         19.34798785	         -3.02853966	        -13.46371775	         19.29765122	         33.60888982	         22.95705442	          0.43139787	          0.19595528	          0.13858176	          0.23224322	          0.20483640	          0.18853904	          0.05000080	          0.05000048	          0.05000038	          0.05000320	          0.09472151	          0.05000029	          0.05000039	          0.05000074	          0.05000154	          0.05000075	          0.20173248	          0.05000168	          0.05000147	          0.05001918	          0.05000975	          0.05000120	          0.21754293	          0.30844983	          0.05002089	          0.05003115	          0.12221807	          0.19106731	          0.05000165	          0.05000150	          0.05000143	          0.36870303	          0.44868136	          0.35841590	          0.40203361	          0.27241133	          0.28607066	          0.05000028	          0.05000018	          0.05000012	          0.05000050	          0.05000018	          0.05000087	          0.06570409	          0.05000002	          0.05000011	          0.21006759	          0.19666002	          0.19590545	          0.05004116	          0.05006402	          0.07878218	          0.05674178	          0.05004031	          0.05638911	          0.05000383	          0.05000194	          0.07817586	          0.13030587	          0.11050974	          0.09422596	          0.08648739	          0.05000104	          0.05000399	          0.07146354	          0.15820503	          0.12633003	          0.08196925	          0.07817052	          0.07489126	          0.09390890	          0.05000516	          0.09715227	          0.05000055	          0.07387862	          0.07839905	          0.07133202	          0.05000005	          0.05000012	          0.05000002	          0.05000010	          0.05000039	          0.05000038	          0.62188624	          0.31695526	          0.18950797	          0.44112828	          0.55257022	          0.28563181	          0.07279476	          0.15762680	          0.05000007	
